<?xml version="1.0" encoding="UTF-8"?>
<svg version="1.1" viewBox="0 0 48 48" xmlns="http://www.w3.org/2000/svg" xmlns:xlink="http://www.w3.org/1999/xlink">
    <!--Generated by IJSVG (https://github.com/iconjar/IJSVG)-->
    <g transform="matrix(1,0,0,1,-400,-1043)">
        <g transform="matrix(1,0,0,1,400,1043)">
            <path fill="#FFF" fill-rule="evenodd" stroke="none" d="M5.7954,8.3613c11.1569,-12.9848 31.8437,-10.4217 39.5774,4.7459c-5.44393,0.0019816 -13.9687,-0.001632 -18.5858,0c-3.34871,0.0011657 -5.51081,-0.0749544 -7.85221,1.15765c-2.75267,1.44896 -4.8296,4.13485 -5.55461,7.28957l-7.58471,-13.1931v0Z"></path>
            <path fill="#FFF" fill-rule="evenodd" stroke="none" d="M16.0155,23.9991c0,4.40074 3.57822,7.98095 7.97652,7.98095c4.39818,0 7.9764,-3.58021 7.9764,-7.98095c0,-4.40062 -3.57822,-7.98095 -7.9764,-7.98095c-4.3983,0 -7.97652,3.58032 -7.97652,7.98095v0Z"></path>
            <path fill="#FFF" fill-rule="evenodd" stroke="none" d="M27.0876,34.4456c-4.47706,1.33053 -9.71629,-0.145013 -12.5862,-5.09876c-2.19064,-3.78129 -7.97862,-13.8646 -10.6094,-18.4495c-9.21392,14.1221 -1.27282,33.3668 15.4544,36.6515l7.74118,-13.1033v0Z"></path>
            <path fill="#FFF" fill-rule="evenodd" stroke="none" d="M31.4015,16.0182c3.72886,3.46818 4.54125,9.08405 2.01542,13.4385c-1.90299,3.28074 -7.97664,13.5318 -10.9203,18.4957c17.2342,1.06242 29.7978,-15.8285 24.123,-31.9342h-15.2181v0Z"></path>
        </g>
    </g>
</svg>