<svg width="126" height="38" viewBox="0 0 126 38" fill="none" xmlns="http://www.w3.org/2000/svg">
<g clip-path="url(#clip0)">
<path d="M3.82162 21.6451H0V17.9196H3.82162V15.2C3.82162 11.2882 6.05405 8.56863 10.1405 8.56863C11.427 8.56863 12.9027 8.75491 13.9243 8.97844L13.5081 13.1882C13.0541 12.9275 12.373 12.5177 11.2757 12.5177C9.53513 12.5177 9.0054 14.0078 9.0054 15.498V17.9196H13.5081V21.6451H8.96757V37.4784H3.82162V21.6451Z" fill="white"/>
<path d="M42.719 2.17525e-06C42.719 2.17525e-06 47.9028 -0.149017 47.9028 4.91765C47.9028 9.98432 47.9028 37.4412 47.9028 37.4412H42.719V2.17525e-06Z" fill="white"/>
<path d="M54.4487 2.17525e-06C54.4487 2.17525e-06 59.5947 -0.149017 59.5947 4.91765C59.5947 9.98432 59.5947 37.4412 59.5947 37.4412H54.4487V2.17525e-06Z" fill="white"/>
<path d="M84.0757 17.9568C84.0757 17.9568 89.2595 17.8078 89.2595 22.9117C89.2595 27.9784 89.2595 37.5902 89.2595 37.5902H84.0757V17.9568Z" fill="white"/>
<path d="M77.7188 21.9431C76.1296 21.4216 74.9945 21.0863 73.1026 21.0863C71.7026 21.0863 70.0378 21.5706 70.0378 23.2471C70.0378 26.3765 79.0053 24.402 79.0053 31.4431C79.0053 35.9882 74.881 37.8137 70.681 37.8137C68.7134 37.8137 66.708 37.4784 64.8161 36.9941L65.1188 32.8216C66.7459 33.6039 68.4486 34.1255 70.227 34.1255C71.5134 34.1255 73.5945 33.6412 73.5945 31.7412C73.5945 27.9039 64.627 30.5118 64.627 23.4706C64.627 19.2608 68.3729 17.398 72.4215 17.398C74.8432 17.398 76.4324 17.7706 78.0594 18.1059L77.7188 21.9431Z" fill="white"/>
<path d="M84.2271 9.42548H89.373V14.2686H84.2271V9.42548Z" fill="white"/>
<path d="M94.2541 17.8451H100.346L104.243 24.2157L108.065 17.8451H113.514L107.611 27.1588L114.308 37.4039H108.141L103.714 30.102L99.2487 37.4039H93.573L100.384 27.1588L94.2541 17.8451Z" fill="white"/>
<path d="M36.6648 37.5529H31.7459V34.9078H31.6702C30.0811 36.8078 27.8486 38.0373 25.1621 38.0373C20.4702 38.0373 18.427 34.7588 18.427 30.3627V17.9941H23.6108V28.4255C23.6108 30.8098 23.6486 34.051 26.9784 34.051C30.7243 34.051 31.5189 30.0647 31.5189 27.5686V17.9941H36.7027V37.5529H36.6648Z" fill="white"/>
<path d="M126 8.75492V8.68041C125.773 6.29609 123.692 4.43335 121.232 4.43335C118.584 4.43335 116.427 6.55688 116.427 9.16472C116.427 11.7726 118.584 13.8961 121.232 13.8961C123.881 13.8961 126.038 11.7726 126.038 9.16472C126 9.0157 126 8.86668 126 8.75492ZM117.335 8.71766C117.562 6.78041 119.227 5.32747 121.195 5.32747C123.162 5.32747 124.827 6.78041 125.054 8.71766V8.75492H124.373V8.71766C124.146 7.19021 122.784 5.99806 121.195 5.99806C119.832 5.99806 118.622 6.85492 118.168 8.12158C118.243 8.12158 120.703 8.12158 120.854 8.12158C120.741 8.00982 119.681 6.96668 119.681 6.96668L120.173 6.48237L122.481 8.71766H117.335ZM125.054 9.57453C124.827 11.5118 123.162 13.002 121.195 13.002C119.189 13.002 117.524 11.549 117.335 9.57453V9.53727H118.016V9.57453C118.205 11.1392 119.605 12.3314 121.195 12.3314C122.557 12.3314 123.768 11.4745 124.222 10.2079C124.146 10.2079 121.686 10.2079 121.535 10.2079C121.649 10.3196 122.708 11.3628 122.708 11.3628L122.216 11.8471L119.87 9.57453H119.946H124.411H125.054Z" fill="#F68A39"/>
</g>
<defs>
<clipPath id="clip0">
<rect width="126" height="38" fill="white"/>
</clipPath>
</defs>
</svg>
