<svg width="10" height="10" viewBox="0 0 10 10" fill="none" xmlns="http://www.w3.org/2000/svg">
<path d="M9.99997 4.75492V4.68041C9.77294 2.29609 7.69186 0.43335 5.2324 0.43335C2.58375 0.43335 0.427002 2.55688 0.427002 5.16472C0.427002 7.77256 2.58375 9.89609 5.2324 9.89609C7.88105 9.89609 10.0378 7.77256 10.0378 5.16472C9.99997 5.0157 9.99997 4.86668 9.99997 4.75492ZM1.33511 4.71766C1.56213 2.78041 3.22699 1.32747 5.19456 1.32747C7.16213 1.32747 8.827 2.78041 9.05403 4.71766V4.75492H8.37295V4.71766C8.14592 3.19021 6.78375 1.99806 5.19456 1.99806C3.8324 1.99806 2.62159 2.85492 2.16753 4.12158C2.24321 4.12158 4.70267 4.12158 4.85402 4.12158C4.74051 4.00982 3.68105 2.96668 3.68105 2.96668L4.17295 2.48237L6.48106 4.71766H1.33511ZM9.05403 5.57453C8.827 7.51178 7.16213 9.00198 5.19456 9.00198C3.18916 9.00198 1.5243 7.54904 1.33511 5.57453V5.53727H2.01618V5.57453C2.20537 7.13923 3.60537 8.33139 5.19456 8.33139C6.55672 8.33139 7.76753 7.47452 8.22159 6.20786C8.14591 6.20786 5.68646 6.20786 5.53511 6.20786C5.64862 6.31962 6.70807 7.36276 6.70807 7.36276L6.21619 7.84707L3.87024 5.57453H3.94592H8.41078H9.05403Z" fill="white"/>
</svg>
