<?xml version="1.0" encoding="UTF-8"?>
<svg version="1.1" viewBox="0 0 24 24" xmlns="http://www.w3.org/2000/svg" xmlns:xlink="http://www.w3.org/1999/xlink">
    <!--Generated by IJSVG (https://github.com/iconjar/IJSVG)-->
    <path d="M12,22l-4.37114e-07,-1.06581e-14c-5.52285,-2.41411e-07 -10,-4.47715 -10,-10c2.41411e-07,-5.52285 4.47715,-10 10,-10l-4.37114e-07,1.06581e-14c5.52285,-2.41411e-07 10,4.47715 10,10c2.41411e-07,5.52285 -4.47715,10 -10,10Zm0,-2l-3.49691e-07,-7.10543e-15c4.41828,1.93129e-07 8,-3.58172 8,-8c1.93129e-07,-4.41828 -3.58172,-8 -8,-8l-3.49691e-07,7.10543e-15c-4.41828,1.93129e-07 -8,3.58172 -8,8c1.93129e-07,4.41828 3.58172,8 8,8Zm0,-9l-4.37114e-08,1.77636e-15c0.552285,-2.41411e-08 1,0.447715 1,1v4v0c0,0.552285 -0.447715,1 -1,1c-0.552285,0 -1,-0.447715 -1,-1v-4l1.06581e-14,1.50996e-07c-8.33927e-08,-0.552285 0.447715,-1 1,-1Zm0,-4l-4.37114e-08,8.88178e-16c0.552285,-2.41411e-08 1,0.447715 1,1c2.41411e-08,0.552285 -0.447715,1 -1,1l-4.37114e-08,-1.77636e-15c-0.552285,-2.41411e-08 -1,-0.447715 -1,-1c2.41411e-08,-0.552285 0.447715,-1 1,-1Z" fill="#FFF"></path>
</svg>